<svg version="1.2" xmlns="http://www.w3.org/2000/svg" viewBox="0 0 400 120" width="400" height="120">
	<title>New Project</title>
	<style>
		.s0 { fill: #287bff } 
		.s1 { fill: #ffffff } 
		.s2 { fill: #0c111d } 
	</style>
	<path id="Background" fill-rule="evenodd" class="s0" d="m58 100c-22.1 0-40-17.9-40-40 0-22.1 17.9-40 40-40 22.1 0 40 17.9 40 40 0 22.1-17.9 40-40 40z"/>
	<path id="S" class="s1" aria-label="S"  d="m58.1 88.5c16.6 0 24.8-8.3 24.8-18.1 0-20.6-31.8-14.2-31.8-22.8 0-2.8 2.4-5 9.1-5 4.9 0 10.1 1.4 15.5 4.3l4.9-11.8c-5.5-3.2-13.1-4.9-20.3-4.9-16.7 0-24.8 8.2-24.8 18.2 0 20.8 31.8 14.3 31.8 23.2 0 2.7-2.6 4.6-9.1 4.6-6.5 0-13.5-2.3-18.5-5.6l-5.2 11.7c5.3 3.7 14.4 6.2 23.6 6.2z"/>
	<path id="Stablio" class="s2" aria-label="Stablio"  d="m126.3 92.1c16.6 0 24.8-8.3 24.8-18.1 0-20.6-31.8-14.2-31.8-22.8 0-2.8 2.4-5 9.1-5 4.8 0 10.1 1.4 15.5 4.3l4.9-11.7c-5.6-3.2-13.1-4.9-20.4-4.9-16.6 0-24.8 8.1-24.8 18.1 0 20.8 31.9 14.4 31.9 23.2 0 2.8-2.6 4.6-9.1 4.6-6.5 0-13.6-2.2-18.5-5.5l-5.2 11.7c5.3 3.6 14.4 6.1 23.6 6.1zm57.5-13.5c-1.3 0.9-3 1.4-4.6 1.4-2.8 0-4.6-1.8-4.6-5v-14.4h9.9v-11.4h-9.9v-11.2h-15.2v11.2h-6.3v11.4h6.3v14.6c0 11.1 6.5 16.5 17.6 16.5 4 0 7.9-0.8 10.6-2.5zm28-31.6c-6.8 0-14.1 1.7-19.1 5l5.1 10.3c3-2.3 7.6-3.7 11.8-3.7 6 0 9 2.4 9.2 6.8h-8.6c-13.5 0-19.3 5-19.3 13 0 7.5 5.7 13.4 16.1 13.4 6.4 0 10.7-2.2 12.8-6.4v5.6h14.2v-24c0-13.8-8.1-20-22.2-20zm-0.5 35.2c-3.6 0-5.7-1.9-5.7-4.4 0-2.7 1.8-4.4 6.6-4.4h6.6v3.7c-1.2 3.5-4.2 5.1-7.5 5.1zm59.6-35.2c-5.1 0-9.1 1.4-12.1 4.4v-19.7h-15.2v59.3h14.5v-4.3c2.9 3.5 7.1 5.1 12.8 5.1 11.7 0 21.3-8.7 21.3-22.5 0-13.8-9.6-22.3-21.3-22.3zm-3.2 32.7c-5.1 0-9.1-3.8-9.1-10.4 0-6.6 4-10.3 9.1-10.3 5.1 0 9.1 3.7 9.1 10.3 0 6.6-4 10.4-9.1 10.4zm31.5 11.3h15.2v-59.3h-15.2zm32.6-48.2c5.6 0 9.3-3.5 9.3-8.3 0-4.6-3.7-7.8-9.3-7.8-5.6 0-9.2 3.5-9.2 8 0 4.6 3.6 8.1 9.2 8.1zm-7.6 48.2h15.2v-43.4h-15.2zm46.8 0.7c14.4 0 24.5-9.3 24.5-22.4 0-13.1-10.1-22.4-24.5-22.4-14.1 0-24.4 9.3-24.4 22.4 0 13.1 10.3 22.4 24.4 22.4zm0-12c-5.1 0-9.1-3.8-9.1-10.4 0-6.6 4-10.3 9.1-10.3 5.2 0 9.2 3.7 9.2 10.3 0 6.6-4 10.4-9.2 10.4z"/>
</svg>